<mxfile host="Electron" agent="Mozilla/5.0 (Windows NT 10.0; Win64; x64) AppleWebKit/537.36 (KHTML, like Gecko) draw.io/25.0.2 Chrome/128.0.6613.186 Electron/32.2.5 Safari/537.36" version="25.0.2">
  <diagram name="SystemDesign" id="dAK0jS9t9_4UUfwJ3Bao">
    <mxGraphModel dx="660" dy="983" grid="1" gridSize="10" guides="1" tooltips="1" connect="1" arrows="1" fold="1" page="1" pageScale="1" pageWidth="850" pageHeight="1100" math="0" shadow="0">
      <root>
        <mxCell id="0" />
        <mxCell id="1" parent="0" />
        <mxCell id="1cNXfGum_RS49VFXcMkv-28" value="" style="edgeStyle=orthogonalEdgeStyle;rounded=0;orthogonalLoop=1;jettySize=auto;html=1;entryX=0.483;entryY=-0.013;entryDx=0;entryDy=0;entryPerimeter=0;" edge="1" parent="1" source="1cNXfGum_RS49VFXcMkv-11" target="1cNXfGum_RS49VFXcMkv-18">
          <mxGeometry relative="1" as="geometry" />
        </mxCell>
        <mxCell id="1cNXfGum_RS49VFXcMkv-11" value="" style="rounded=1;whiteSpace=wrap;html=1;dashed=1;" vertex="1" parent="1">
          <mxGeometry x="165" y="330" width="295" height="100" as="geometry" />
        </mxCell>
        <mxCell id="1cNXfGum_RS49VFXcMkv-4" value="" style="group" vertex="1" connectable="0" parent="1">
          <mxGeometry x="230" y="80" width="160" height="80" as="geometry" />
        </mxCell>
        <mxCell id="1cNXfGum_RS49VFXcMkv-1" value="" style="rounded=1;whiteSpace=wrap;html=1;" vertex="1" parent="1cNXfGum_RS49VFXcMkv-4">
          <mxGeometry width="160" height="80" as="geometry" />
        </mxCell>
        <mxCell id="1cNXfGum_RS49VFXcMkv-2" value="Web" style="sketch=0;aspect=fixed;pointerEvents=1;shadow=0;dashed=0;html=1;strokeColor=none;labelPosition=center;verticalLabelPosition=bottom;verticalAlign=top;align=center;fillColor=#00188D;shape=mxgraph.azure.laptop" vertex="1" parent="1cNXfGum_RS49VFXcMkv-4">
          <mxGeometry x="20" y="20" width="50" height="30" as="geometry" />
        </mxCell>
        <mxCell id="1cNXfGum_RS49VFXcMkv-3" value="Mobile app" style="html=1;verticalLabelPosition=bottom;align=center;labelBackgroundColor=#ffffff;verticalAlign=top;strokeWidth=2;strokeColor=#0080F0;shadow=0;dashed=0;shape=mxgraph.ios7.icons.smartphone;" vertex="1" parent="1cNXfGum_RS49VFXcMkv-4">
          <mxGeometry x="110" y="20" width="18" height="30" as="geometry" />
        </mxCell>
        <mxCell id="1cNXfGum_RS49VFXcMkv-5" value="" style="fillColor=#28A8E0;verticalLabelPosition=bottom;sketch=0;html=1;strokeColor=#ffffff;verticalAlign=top;align=center;points=[[0.145,0.145,0],[0.5,0,0],[0.855,0.145,0],[1,0.5,0],[0.855,0.855,0],[0.5,1,0],[0.145,0.855,0],[0,0.5,0]];pointerEvents=1;shape=mxgraph.cisco_safe.compositeIcon;bgIcon=ellipse;resIcon=mxgraph.cisco_safe.capability.dns;" vertex="1" parent="1">
          <mxGeometry x="130" y="98.5" width="43" height="43" as="geometry" />
        </mxCell>
        <mxCell id="1cNXfGum_RS49VFXcMkv-6" value="" style="edgeStyle=orthogonalEdgeStyle;rounded=0;orthogonalLoop=1;jettySize=auto;html=1;" edge="1" parent="1" source="1cNXfGum_RS49VFXcMkv-1" target="1cNXfGum_RS49VFXcMkv-5">
          <mxGeometry relative="1" as="geometry" />
        </mxCell>
        <mxCell id="1cNXfGum_RS49VFXcMkv-7" value="CDN" style="image;aspect=fixed;html=1;points=[];align=center;fontSize=12;image=img/lib/azure2/app_services/CDN_Profiles.svg;" vertex="1" parent="1">
          <mxGeometry x="460" y="100" width="68" height="40" as="geometry" />
        </mxCell>
        <mxCell id="1cNXfGum_RS49VFXcMkv-8" value="" style="edgeStyle=orthogonalEdgeStyle;rounded=0;orthogonalLoop=1;jettySize=auto;html=1;" edge="1" parent="1" source="1cNXfGum_RS49VFXcMkv-1" target="1cNXfGum_RS49VFXcMkv-7">
          <mxGeometry relative="1" as="geometry" />
        </mxCell>
        <mxCell id="1cNXfGum_RS49VFXcMkv-15" style="edgeStyle=orthogonalEdgeStyle;rounded=0;orthogonalLoop=1;jettySize=auto;html=1;" edge="1" parent="1" source="1cNXfGum_RS49VFXcMkv-9" target="1cNXfGum_RS49VFXcMkv-12">
          <mxGeometry relative="1" as="geometry">
            <mxPoint x="300" y="300" as="targetPoint" />
          </mxGeometry>
        </mxCell>
        <mxCell id="1cNXfGum_RS49VFXcMkv-16" style="edgeStyle=orthogonalEdgeStyle;rounded=0;orthogonalLoop=1;jettySize=auto;html=1;entryX=0.5;entryY=0;entryDx=0;entryDy=0;" edge="1" parent="1" source="1cNXfGum_RS49VFXcMkv-9" target="1cNXfGum_RS49VFXcMkv-13">
          <mxGeometry relative="1" as="geometry" />
        </mxCell>
        <mxCell id="1cNXfGum_RS49VFXcMkv-17" style="edgeStyle=orthogonalEdgeStyle;rounded=0;orthogonalLoop=1;jettySize=auto;html=1;entryX=0.5;entryY=0;entryDx=0;entryDy=0;" edge="1" parent="1" source="1cNXfGum_RS49VFXcMkv-9" target="1cNXfGum_RS49VFXcMkv-14">
          <mxGeometry relative="1" as="geometry" />
        </mxCell>
        <mxCell id="1cNXfGum_RS49VFXcMkv-9" value="LB" style="verticalLabelPosition=bottom;html=1;verticalAlign=top;align=center;strokeColor=none;fillColor=#00BEF2;shape=mxgraph.azure.azure_load_balancer;" vertex="1" parent="1">
          <mxGeometry x="285" y="240" width="50" height="35" as="geometry" />
        </mxCell>
        <mxCell id="1cNXfGum_RS49VFXcMkv-10" value="" style="edgeStyle=orthogonalEdgeStyle;rounded=0;orthogonalLoop=1;jettySize=auto;html=1;" edge="1" parent="1" source="1cNXfGum_RS49VFXcMkv-1" target="1cNXfGum_RS49VFXcMkv-9">
          <mxGeometry relative="1" as="geometry" />
        </mxCell>
        <mxCell id="1cNXfGum_RS49VFXcMkv-12" value="Server 1" style="rounded=1;whiteSpace=wrap;html=1;" vertex="1" parent="1">
          <mxGeometry x="190" y="350" width="50" height="60" as="geometry" />
        </mxCell>
        <mxCell id="1cNXfGum_RS49VFXcMkv-13" value="Server 2" style="rounded=1;whiteSpace=wrap;html=1;" vertex="1" parent="1">
          <mxGeometry x="285" y="350" width="50" height="60" as="geometry" />
        </mxCell>
        <mxCell id="1cNXfGum_RS49VFXcMkv-14" value="Server 3" style="rounded=1;whiteSpace=wrap;html=1;" vertex="1" parent="1">
          <mxGeometry x="380" y="350" width="50" height="60" as="geometry" />
        </mxCell>
        <mxCell id="1cNXfGum_RS49VFXcMkv-18" value="" style="rounded=1;whiteSpace=wrap;html=1;dashed=1;" vertex="1" parent="1">
          <mxGeometry x="120" y="480" width="400" height="100" as="geometry" />
        </mxCell>
        <mxCell id="1cNXfGum_RS49VFXcMkv-25" value="replicate" style="edgeStyle=orthogonalEdgeStyle;rounded=0;orthogonalLoop=1;jettySize=auto;html=1;" edge="1" parent="1" source="1cNXfGum_RS49VFXcMkv-22" target="1cNXfGum_RS49VFXcMkv-24">
          <mxGeometry relative="1" as="geometry" />
        </mxCell>
        <mxCell id="1cNXfGum_RS49VFXcMkv-26" value="replicate" style="edgeStyle=orthogonalEdgeStyle;rounded=0;orthogonalLoop=1;jettySize=auto;html=1;" edge="1" parent="1" source="1cNXfGum_RS49VFXcMkv-22" target="1cNXfGum_RS49VFXcMkv-23">
          <mxGeometry relative="1" as="geometry" />
        </mxCell>
        <mxCell id="1cNXfGum_RS49VFXcMkv-22" value="Master DB" style="strokeWidth=2;html=1;shape=mxgraph.flowchart.database;whiteSpace=wrap;" vertex="1" parent="1">
          <mxGeometry x="282.5" y="500" width="60" height="60" as="geometry" />
        </mxCell>
        <mxCell id="1cNXfGum_RS49VFXcMkv-23" value="Slave DB" style="strokeWidth=2;html=1;shape=mxgraph.flowchart.database;whiteSpace=wrap;" vertex="1" parent="1">
          <mxGeometry x="140" y="500" width="60" height="60" as="geometry" />
        </mxCell>
        <mxCell id="1cNXfGum_RS49VFXcMkv-24" value="Slave DB" style="strokeWidth=2;html=1;shape=mxgraph.flowchart.database;whiteSpace=wrap;" vertex="1" parent="1">
          <mxGeometry x="410" y="500" width="60" height="60" as="geometry" />
        </mxCell>
        <mxCell id="1cNXfGum_RS49VFXcMkv-27" value="auto scale" style="text;html=1;align=center;verticalAlign=middle;whiteSpace=wrap;rounded=0;" vertex="1" parent="1">
          <mxGeometry x="468" y="365" width="60" height="30" as="geometry" />
        </mxCell>
      </root>
    </mxGraphModel>
  </diagram>
</mxfile>
